<?xml version="1.0" encoding="UTF-8"?>
<svg id="Calque_2" data-name="Calque 2" xmlns="http://www.w3.org/2000/svg" viewBox="0 0 740.25 1158.59">
  <defs>
    <style>
      .cls-1 {
        fill: #32a2db;
      }
    </style>
  </defs>
  <g id="Calque_1-2" data-name="Calque 1">
    <path class="cls-1" d="M117.98,883.84s33.17,33.01,28.61,101.66c-4.56,68.65,28.02,161.53,109.69,171.88,81.67,10.34,131.85-48.33,132.85-92.63,1-44.3-12.53-107.02-61.56-149.56-49.03-42.54-67.25-28.45-83.86-84.22-14.46-48.51-39.49-69.54-70.1-82.24-30.61-12.7-58.96-30.34-90.15-75.03-31.19-44.69-47.13-84.8-51.91-105.54-4.78-20.74,5.66-41.15,30.69-50.85,25.03-9.7,30.18-19.7,37.43-28.03,7.25-8.33,35.49-28.64,61.33,7.58,25.84,36.22,86.93,257.78,112.76,309.94,25.83,52.16,76.59,135.16,143.99,150.35,67.4,15.19,103.71-50.1,97.52-100.4-5.55-45.05-30.22-130.79-54.51-169.09-24.29-38.3,17.59-66.57,20.79-69.53,3.2-2.97,42.97-28.63,16.82-55.28-17.68-18.02-37.47-7.85-55.02-14.41-24.07-8.99-124.86-211.94-142.68-254.03-17.81-42.1,15.58-39.23,25.75-27.5,10.17,11.74,174.14,262.28,307.92,426.28,33.84,41.48,57.37,7.69,45.81-18.58-7.76-17.64-57.28-83.66-69.12-118.29-13.54-39.6-3.02-84.48.89-101.4,16.35-70.77,24.28-150.17,71.61-144.91,38.37,4.27,37.2,36.2,35.52,64.98-1.68,28.79-4.36,52.13-4.36,52.13,0,0,.81,32.79-30.04,31.63-27.26-1.02-42.42-14.86-40.94-54.43.98-26.12,1.43-188.55,13.95-234.45,12.52-45.91,62.33-78.1,70.99-102.99,8.65-24.89-8.41-50.23-53.87-59.14-45.47-8.91-88.12-10.51-102.81-2.83-14.7,7.68-9.42,45.45,16.05,72.9,25.47,27.46,46.57,115.12,41.85,240.92-4.85,129.16.33,154.97,51.05,156.88,36.79,1.38,54.91-14.41,56.48-56.47,1.11-29.45,2.21-61.11,2.83-79.07.86-25.07-16.57-47.37-41.25-51.81-.69-.12-1.39-.24-2.1-.35-39.89-6.06-69.13,3.19-87.86,68.14-10.83,37.57-20.25,88.67-26.14,117.76-6.08,30.02-2.57,61.23,10.19,89.07,10.94,23.87,27.71,55.35,52.57,91.08,11.27,16.2.98,13.71-16.78-6.18s-236.55-348.89-247.67-363.78c-11.11-14.89-46.84-70.86-100.83-50.48s28.65,169.64,28.65,169.64l55.41,116.01s19.75,50.85-2.16,90.84c-24.05,43.91,23.79,107.5,37.14,146.67,13.35,39.17,12.63,95.12-20.29,61.15-32.92-33.97-156.2-287.69-178.59-332.16-22.4-44.46-66.58-77.98-118.21-28.5-25.21,24.16-24.75,32.94-61.49,67.02-36.74,34.08-24.64,62.03,35,150.34,59.64,88.3,59.93,122.2,46.35,136.09-13.58,13.89-5.63,42.22,15.82,73.21Z"/>
  </g>
</svg>