<?xml version="1.0" encoding="UTF-8"?>
<svg id="Calque_1" xmlns="http://www.w3.org/2000/svg" version="1.1" viewBox="0 0 841.9 1190.6">
  <!-- Generator: Adobe Illustrator 29.7.1, SVG Export Plug-In . SVG Version: 2.1.1 Build 8)  -->
  <defs>
    <style>
      .st0 {
        fill: #32a2db;
      }

      .st1 {
        fill: #e94c24;
      }

      .st2 {
        fill: #5dc5ea;
      }
    </style>
  </defs>
  <rect class="st1" x="-10.1" y="-18.9" width="870.9" height="1229.8"/>
  <path class="st0" d="M140.7,904.6s33.2,33,28.6,101.7c-4.6,68.7,28,161.5,109.7,171.9,81.7,10.3,131.9-48.3,132.9-92.6,1-44.3-12.5-107-61.6-149.6-49-42.5-67.2-28.5-83.9-84.2-14.5-48.5-39.5-69.5-70.1-82.2-30.6-12.7-59-30.3-90.1-75-31.2-44.7-47.1-84.8-51.9-105.5-4.8-20.7,5.7-41.1,30.7-50.8,25-9.7,30.2-19.7,37.4-28,7.3-8.3,35.5-28.6,61.3,7.6,25.8,36.2,86.9,257.8,112.8,309.9,25.8,52.2,76.6,135.2,144,150.3,67.4,15.2,103.7-50.1,97.5-100.4-5.5-45-30.2-130.8-54.5-169.1-24.3-38.3,17.6-66.6,20.8-69.5,3.2-3,43-28.6,16.8-55.3-17.7-18-37.5-7.9-55-14.4-24.1-9-124.9-211.9-142.7-254-17.8-42.1,15.6-39.2,25.7-27.5,10.2,11.7,174.1,262.3,307.9,426.3,33.8,41.5,57.4,7.7,45.8-18.6-7.8-17.6-57.3-83.7-69.1-118.3-13.5-39.6-3-84.5.9-101.4,16.3-70.8,24.3-150.2,71.6-144.9,38.4,4.3,37.2,36.2,35.5,65-1.7,28.8-4.4,52.1-4.4,52.1,0,0,.8,32.8-30,31.6-27.3-1-42.4-14.9-40.9-54.4,1-26.1,1.4-188.5,14-234.5,12.5-45.9,62.3-78.1,71-103,8.7-24.9-8.4-50.2-53.9-59.1-45.5-8.9-88.1-10.5-102.8-2.8-14.7,7.7-9.4,45.4,16,72.9,25.5,27.5,46.6,115.1,41.9,240.9-4.8,129.2.3,155,51,156.9,36.8,1.4,54.9-14.4,56.5-56.5,1.1-29.4,2.2-61.1,2.8-79.1.9-25.1-16.6-47.4-41.3-51.8-.7-.1-1.4-.2-2.1-.3-39.9-6.1-69.1,3.2-87.9,68.1-10.8,37.6-20.2,88.7-26.1,117.8-6.1,30-2.6,61.2,10.2,89.1,10.9,23.9,27.7,55.3,52.6,91.1,11.3,16.2,1,13.7-16.8-6.2s-236.6-348.9-247.7-363.8c-11.1-14.9-46.8-70.9-100.8-50.5s28.7,169.6,28.7,169.6l55.4,116s19.7,50.9-2.2,90.8c-24.1,43.9,23.8,107.5,37.1,146.7,13.3,39.2,12.6,95.1-20.3,61.2-32.9-34-156.2-287.7-178.6-332.2-22.4-44.5-66.6-78-118.2-28.5-25.2,24.2-24.7,32.9-61.5,67-36.7,34.1-24.6,62,35,150.3,59.6,88.3,59.9,122.2,46.4,136.1-13.6,13.9-5.6,42.2,15.8,73.2Z"/>
  <path class="st2" d="M176.6,900.9s33.2,33,28.6,101.7c-4.6,68.7,28,161.5,109.7,171.9,81.7,10.3,131.9-48.3,132.9-92.6,1-44.3-12.5-107-61.6-149.6-49-42.5-67.2-28.5-83.9-84.2-14.5-48.5-39.5-69.5-70.1-82.2-30.6-12.7-59-30.3-90.1-75-31.2-44.7-47.1-84.8-51.9-105.5-4.8-20.7,5.7-41.1,30.7-50.8,25-9.7,30.2-19.7,37.4-28,7.3-8.3,35.5-28.6,61.3,7.6,25.8,36.2,86.9,257.8,112.8,309.9,25.8,52.2,76.6,135.2,144,150.3,67.4,15.2,103.7-50.1,97.5-100.4-5.5-45-30.2-130.8-54.5-169.1-24.3-38.3,17.6-66.6,20.8-69.5,3.2-3,43-28.6,16.8-55.3-17.7-18-37.5-7.9-55-14.4-24.1-9-124.9-211.9-142.7-254-17.8-42.1,15.6-39.2,25.7-27.5,10.2,11.7,174.1,262.3,307.9,426.3,33.8,41.5,57.4,7.7,45.8-18.6-7.8-17.6-57.3-83.7-69.1-118.3-13.5-39.6-3-84.5.9-101.4,16.3-70.8,24.3-150.2,71.6-144.9,38.4,4.3,37.2,36.2,35.5,65s-4.4,52.1-4.4,52.1c0,0,.8,32.8-30,31.6-27.3-1-42.4-14.9-40.9-54.4,1-26.1,1.4-188.5,14-234.5,12.5-45.9,62.3-78.1,71-103,8.7-24.9-8.4-50.2-53.9-59.1-45.5-8.9-88.1-10.5-102.8-2.8-14.7,7.7-9.4,45.4,16,72.9s46.6,115.1,41.9,240.9c-4.8,129.2.3,155,51,156.9,36.8,1.4,54.9-14.4,56.5-56.5,1.1-29.4,2.2-61.1,2.8-79.1.9-25.1-16.6-47.4-41.3-51.8-.7-.1-1.4-.2-2.1-.3-39.9-6.1-69.1,3.2-87.9,68.1-10.8,37.6-20.2,88.7-26.1,117.8-6.1,30-2.6,61.2,10.2,89.1,10.9,23.9,27.7,55.3,52.6,91.1,11.3,16.2,1,13.7-16.8-6.2-17.8-19.9-236.6-348.9-247.7-363.8-11.1-14.9-46.8-70.9-100.8-50.5-54,20.4,28.7,169.6,28.7,169.6l55.4,116s19.7,50.9-2.2,90.8c-24.1,43.9,23.8,107.5,37.1,146.7,13.3,39.2,12.6,95.1-20.3,61.2s-156.2-287.7-178.6-332.2-66.6-78-118.2-28.5c-25.2,24.2-24.7,32.9-61.5,67-36.7,34.1-24.6,62,35,150.3,59.6,88.3,59.9,122.2,46.4,136.1s-5.6,42.2,15.8,73.2Z"/>
  <g>
    <path d="M555.4,1162.3c11.2-8.8,15.8-12.2,29.8-23.6,11.2-9.1,14.9-16,14.9-23.1s-4.4-11.1-11.5-11.1-12.4,6-12.4,14.2h-20c.1-19.5,12.1-31.8,32.6-31.8s32.4,10.6,32.4,27.2-8.6,24.1-20.6,33.2c-8.6,6.6-13.8,9.9-19.8,14.9,2.8-.1,4.5-.1,7.4-.1h33.5v16.2h-66.2v-16.1Z"/>
    <path d="M625.9,1134c0-25.5,6.6-47.1,34.5-47.1s34.5,21.6,34.5,47.1-7,46.2-34.5,46.2-34.5-18.5-34.5-46.2ZM674.1,1134.5c0-21-3-31.4-13.6-31.4s-13.6,10.4-13.6,31.4,3.1,29.5,13.6,29.5,13.6-9.1,13.6-29.5Z"/>
    <path d="M698.3,1162.3c11.2-8.8,15.8-12.2,29.8-23.6,11.2-9.1,14.9-16,14.9-23.1s-4.4-11.1-11.5-11.1-12.4,6-12.4,14.2h-20c.1-19.5,12.1-31.8,32.6-31.8s32.4,10.6,32.4,27.2-8.6,24.1-20.6,33.2c-8.6,6.6-13.8,9.9-19.8,14.9,2.8-.1,4.5-.1,7.4-.1h33.5v16.2h-66.2v-16.1Z"/>
    <path d="M767.3,1152.5h21.4c1,6.6,5.4,11.4,13,11.4s13.4-5.9,13.4-14.8-5-14.4-13.1-14.4-9.8,3.2-12,7.2l-19.9-3.2,5.5-49.8h53.6v16.5h-37.8c-.8,6.1-1.5,11.9-2.5,18.4h.1c4.1-3.1,9.6-5.4,17.4-5.4,16.9,0,29.1,11.5,29.1,29.8s-13.6,31.8-34.1,31.8-32.9-11.2-34.1-27.5Z"/>
  </g>
  <g>
    <path d="M553.2,193.9c0-4.6,5.4-6,10.8-6.5.6,0,1.3-.1,1.7-.1,0-2.6-.9-3.9-3-3.9s-3,1-3.1,2.7h-5.4c.3-3.9,3.3-6.5,8.5-6.5s8.3,2.1,8.3,8.5v5.8c0,1.4,0,3.8.4,5.2h-5.1c0-.7-.1-1.4-.1-2.1-1.2,1.2-2.7,2.5-6.1,2.5s-6.8-2.1-6.8-5.6ZM555.5,173.4h7.4l3.7,4.3h-6l-5.1-4.3ZM565.6,191.4c0-.2,0-.4,0-.6h-1c-4.2.6-5.7,1.2-5.7,3s1.2,2.2,2.8,2.2c2.6,0,3.8-1.6,3.8-4.5Z"/>
    <path d="M579.9,173.4h5.9v9.9h9.4v-9.9h5.9v25.7h-5.9v-10.7h-9.4v10.7h-5.9v-25.7Z"/>
    <path d="M602.7,189.6c0-5.9,4.1-10,10-10s9.7,4.3,9.7,10.5,0,.7,0,.9h-14c.2,2.8,2,4.5,4.5,4.5s3-.7,3.6-2h5.7c-1.2,3.7-4.4,6.2-9.5,6.2s-9.9-3.9-9.9-10.1ZM616.7,187.5c-.3-2.5-1.7-3.9-4.1-3.9s-3.9,1.4-4.2,3.9h8.3Z"/>
    <path d="M623.8,183.7c0-1.2,0-2.2,0-3.4h5.2c0,1.9,0,2.3,0,3h0c.9-2.4,2.8-3.5,5.3-3.5s1,0,1.2,0v5.1c-.5-.1-1-.1-1.5-.1-4.1,0-4.5,2.7-4.5,8.4v5.9h-5.6v-15.5Z"/>
    <path d="M636.5,183.1c0-1,0-1.9,0-2.9h5.4v2.6c.8-1.5,2.6-3.1,5.7-3.1s4.4,1.2,5.5,3.2h0c.8-1.4,2.8-3.2,6.2-3.2s6.6,2.1,6.6,8.2v11.2h-5.6v-9.1c0-4-.6-5.8-2.9-5.8s-3.4,1.8-3.4,5.3v9.7h-5.6v-9.1c0-4-.6-5.8-2.9-5.8s-3.4,1.8-3.4,5.3v9.7h-5.6v-16Z"/>
    <path d="M667,193.9c0-4.6,5.4-6,10.8-6.5.6,0,1.3-.1,1.7-.1,0-2.6-.9-3.9-3-3.9s-3,1-3.1,2.7h-5.4c.3-3.9,3.3-6.5,8.5-6.5s8.3,2.1,8.3,8.5v5.8c0,1.4,0,3.8.4,5.2h-5.1c0-.7-.1-1.4-.1-2.1-1.2,1.2-2.7,2.5-6.1,2.5s-6.8-2.1-6.8-5.6ZM679.4,191.4c0-.2,0-.4,0-.6h-1c-4.2.6-5.7,1.2-5.7,3s1.2,2.2,2.8,2.2c2.6,0,3.8-1.6,3.8-4.5Z"/>
    <path d="M687.1,183.1c0-1,0-1.9,0-2.9h5.4v2.6c.8-1.5,2.7-3.1,5.8-3.1s4.5,1.1,5.7,3c1.1,1.9,1.1,4.4,1.1,6.7v9.7h-5.6v-9.1c0-3.8-.6-5.8-3.1-5.8s-3.6,1.8-3.6,5.3v9.7h-5.6v-16Z"/>
    <path d="M706.3,189.7c0-5.9,4-10.1,10-10.1s8.5,2.6,9.3,7.3h-5.7c-.5-1.8-1.7-2.9-3.6-2.9s-4.3,2.2-4.3,5.6,1.7,5.6,4.4,5.6,3.2-.9,3.6-2.8h5.5c-.9,4.4-4.2,7.3-9.4,7.3s-10-4.2-10-10Z"/>
    <path d="M725.6,189.6c0-5.9,4.1-10,10-10s9.7,4.3,9.7,10.5,0,.7,0,.9h-14c.2,2.8,2,4.5,4.5,4.5s3-.7,3.6-2h5.7c-1.2,3.7-4.4,6.2-9.5,6.2s-9.9-3.9-9.9-10.1ZM739.6,187.5c-.3-2.5-1.7-3.9-4.1-3.9s-3.9,1.4-4.2,3.9h8.3Z"/>
  </g>
  <g>
    <path d="M555,281.7h5.5c0,.8,0,1.4,0,2,.9-1.1,2.8-2.5,5.9-2.5,4.9,0,8.3,3.6,8.3,9.8s-3.4,10.1-8.5,10.1-4.6-1.2-5.5-2.4c0,1.1,0,2.4,0,4v4.4h-5.6v-25.4ZM568.7,291.1c0-3.2-1.6-5.6-4.2-5.6s-4.2,2.2-4.2,5.5,1.5,5.8,4.2,5.8,4.2-2.4,4.2-5.7Z"/>
    <path d="M576.2,285.1c0-1.2,0-2.2,0-3.4h5.2c0,1.9,0,2.3,0,3h0c.9-2.4,2.8-3.5,5.3-3.5s1,0,1.2,0v5.1c-.5-.1-1-.1-1.5-.1-4.1,0-4.5,2.7-4.5,8.4v5.9h-5.6v-15.5Z"/>
    <path d="M588.9,274.9h5.6v4.6h-5.6v-4.6ZM588.9,281.7h5.6v18.9h-5.6v-18.9Z"/>
    <path d="M601.2,290.8l-5.9-9.1h6.2c.8,1.5,2.1,3.9,3.1,5.8.9-1.6,1.9-3.8,3.1-5.8h5.9c-1.7,2.8-4.1,6.4-5.8,9.1,1.9,3,4.6,6.8,6.5,9.8h-6.3c-1.7-3-3-5.3-3.6-6.5-1,1.9-2.6,4.6-3.6,6.5h-6.1l6.4-9.8Z"/>
    <path d="M620.7,274.9h5.6v25.7h-5.6v-25.7Z"/>
    <path d="M629,274.9h5.6v4.6h-5.6v-4.6ZM629,281.7h5.6v18.9h-5.6v-18.9Z"/>
    <path d="M642.6,298.1c0,.6,0,1.8,0,2.5h-5.3v-25.7h5.6v8.8c.8-1.1,2.7-2.5,5.8-2.5,4.9,0,8.3,3.6,8.3,9.8s-3.4,10.1-8.5,10.1-5-1.7-5.9-3ZM651,291.1c0-3.2-1.6-5.6-4.2-5.6s-4.2,2.2-4.2,5.5,1.5,5.8,4.2,5.8,4.2-2.4,4.2-5.7Z"/>
    <path d="M658.5,285.1c0-1.2,0-2.2,0-3.4h5.2c0,1.9,0,2.3,0,3h0c.9-2.4,2.8-3.5,5.3-3.5s1,0,1.2,0v5.1c-.5-.1-1-.1-1.5-.1-4.1,0-4.5,2.7-4.5,8.4v5.9h-5.6v-15.5Z"/>
    <path d="M669.3,291.1c0-5.9,4.1-10,10-10s9.7,4.3,9.7,10.5,0,.7,0,.9h-14c.2,2.8,2,4.5,4.5,4.5s3-.7,3.6-2h5.7c-1.2,3.7-4.4,6.2-9.5,6.2s-9.9-3.9-9.9-10.1ZM683.3,289c-.3-2.5-1.7-3.9-4.1-3.9s-3.9,1.4-4.2,3.9h8.3Z"/>
  </g>
  <g>
    <path d="M16.5,908v-1c.4-.2.8-.5.8-1.2,0-1.1-.7-1.5-2-1.5,0,0,0,0,0,0,.4.2.8.8.8,1.6s-1,2.2-2.3,2.2-2.3-.9-2.3-2.2.4-1.3.7-1.6c0,0-.2,0-.3,0h-.3v-.9h3.8c1.7,0,2.6.8,2.6,2.4s-.6,1.9-1.6,2.1ZM13.8,904.4c-.9,0-1.5.5-1.5,1.4s.6,1.4,1.6,1.4,1.6-.5,1.6-1.4-.6-1.4-1.6-1.4Z"/>
    <path d="M12.5,902.2c-.3,0-.6,0-.8,0v-.9h.6c-.4-.2-.7-.6-.7-1.1s0-.2,0-.2h.8c0,0,0,.2,0,.3,0,.9.6,1,1.6,1h2.4v.9h-3.9Z"/>
    <path d="M15.1,899.6c-1,0-1.4-1-1.5-2.2,0-.4-.1-.9-.1-1-1,0-1.2.4-1.2,1s.3,1,.9,1.1v.9c-1,0-1.6-.9-1.6-2s.3-1.9,2.2-1.9h.9c.8,0,1.3,0,1.8-.1v.9c-.2,0-.3,0-.6,0,.5.4.7.8.7,1.6s-.5,1.7-1.4,1.7ZM14.4,896.4c-.1,0-.2,0-.3,0,.2,1.5.3,2.2,1,2.2s.7-.4.7-.9c0-.8-.5-1.3-1.4-1.3Z"/>
    <path d="M11.6,894.2v-.9s.6,0,.6,0c-.4-.3-.8-.8-.8-1.5,0-1.4,1.1-2.2,2.5-2.2s2.5.9,2.5,2.2-.3,1.3-.7,1.6c0,0,.5,0,1.1,0h1.1v.9h-6.3ZM14,890.5c-1,0-1.7.5-1.7,1.4,0,.9.7,1.4,1.7,1.4s1.7-.5,1.7-1.4-.7-1.4-1.7-1.4Z"/>
    <path d="M9.9,888.5v-.9h1c.4,0,1,0,1.3,0-.3-.2-.8-.7-.8-1.5s.7-1.7,1.9-1.7h2.9v.9h-2.6c-.9,0-1.5.3-1.5,1.1s.6,1.2,1.3,1.2h2.8v.9s-6.4,0-6.4,0Z"/>
    <path d="M9.9,883.2v-.9h1v.9s-1,0-1,0ZM11.6,883.2v-.9s4.7,0,4.7,0v.9s-4.7,0-4.7,0Z"/>
    <path d="M14.9,881.3v-.9c.5-.2.8-.5.8-1.1s-.2-.9-.7-.9-.5.4-.7,1.1v.3c-.3.8-.6,1.4-1.4,1.4s-1.4-.8-1.4-1.8.5-1.7,1.4-1.8v.9c-.4.1-.7.5-.7,1s.2.9.6.9.5-.3.7-.9v-.5c.4-.9.7-1.4,1.5-1.4s1.5.8,1.5,1.9-.5,1.8-1.5,2Z"/>
    <path d="M12.4,876.4c-.3,0-.5,0-.7,0v-.9s.6,0,.6,0c-.4-.3-.8-.7-.8-1.5s.3-1.2.9-1.4c-.4-.3-.9-.7-.9-1.6s.7-1.7,2-1.7h2.9v.9h-2.5c-1,0-1.5.3-1.5,1s.6,1.1,1.4,1.1h2.7v.9h-2.5c-1,0-1.5.3-1.5,1,0,.7.6,1.1,1.4,1.1h2.7v.9h-4Z"/>
    <path d="M14,868.4c-1.5,0-2.5-.9-2.5-2.4s1.2-2.3,2.4-2.3h.3v3.7c.8,0,1.5-.6,1.5-1.5s-.3-1-.7-1.2v-.9c.9.3,1.5,1,1.5,2.2s-1,2.4-2.5,2.4ZM13.5,864.7c-.7,0-1.3.5-1.3,1.3s.5,1.3,1.3,1.4v-2.7Z"/>
    <path d="M11.9,861.7v-1h1.1v1h-1.1ZM15.3,861.7v-1h1.1v1h-1.1Z"/>
    <path d="M13.9,856.1c-1.3.7-2.6,1.4-3.9,2.2v-1.1c.8-.4,1.7-.9,3-1.6-.3-.1-.5-.3-3-1.6v-1c1.3.7,2.6,1.5,3.9,2.2h2.5v.9s-2.5,0-2.5,0Z"/>
    <path d="M15.1,853.3c-1,0-1.4-1-1.5-2.2,0-.4-.1-.9-.1-1-1,0-1.2.4-1.2,1s.3,1,.9,1.1v.9c-1,0-1.6-.9-1.6-2s.3-1.9,2.2-1.9h.9c.8,0,1.3,0,1.8-.1v.9c-.2,0-.3,0-.6,0,.5.4.7.8.7,1.6s-.5,1.7-1.4,1.7ZM14.4,850.1c-.1,0-.2,0-.3,0,.2,1.5.3,2.2,1,2.2s.7-.4.7-.9c0-.8-.5-1.3-1.4-1.3Z"/>
    <path d="M12.3,847.9c-.2,0-.5,0-.7,0v-.9h.6c-.4-.3-.8-.7-.8-1.5s.7-1.7,2-1.7h2.9v.9h-2.6c-.9,0-1.5.3-1.5,1.1s.6,1.2,1.4,1.2h2.7v.9h-4Z"/>
    <path d="M12.3,842.6c-.2,0-.5,0-.7,0v-.9h.6c-.4-.3-.8-.7-.8-1.5s.7-1.7,2-1.7h2.9v.9s-2.6,0-2.6,0c-.9,0-1.5.3-1.5,1.1s.6,1.2,1.4,1.2h2.7v.9s-4,0-4,0Z"/>
    <path d="M9.9,837.3v-.9h1v.9h-1ZM11.6,837.2v-.9s4.7,0,4.7,0v.9h-4.7Z"/>
    <path d="M14,835.3c-1.4,0-2.5-1-2.5-2.4s.7-2,1.7-2.2v.9c-.6.2-.9.7-.9,1.3,0,.9.7,1.4,1.7,1.4s1.7-.5,1.7-1.4-.3-1.1-.9-1.3v-.9c.9.2,1.6,1,1.6,2.2,0,1.5-1.1,2.4-2.5,2.4Z"/>
    <path d="M9.9,829.7v-.9h3.8l-.6-.5c-.5-.4-1.2-1-1.5-1.3v-1.1l2.1,2c.3-.3,1.7-1.4,2.6-2.2v1.2c-.3.3-.9.8-1.4,1.2l-.9.7h2.4v.9s-6.4,0-6.4,0Z"/>
    <path d="M9.9,824.9v-1.1l3.6-1.3c1.2-.4,1.1-.4,1.8-.6h0c-.6-.2-1.2-.4-1.9-.7l-3.6-1.3v-1l6.4,2.4v1.1c-1.7.7-5.3,1.9-6.4,2.3Z"/>
    <path d="M14,818c-1.5,0-2.5-.9-2.5-2.4s1-2.4,2.5-2.4,2.5.9,2.5,2.4-1,2.4-2.5,2.4ZM14,814.2c-1,0-1.7.5-1.7,1.4s.7,1.4,1.7,1.4,1.7-.5,1.7-1.4-.7-1.4-1.7-1.4Z"/>
    <path d="M9.9,812.2v-.9h1v.9h-1ZM11.6,812.2v-.9h4.7v.9h-4.7Z"/>
    <path d="M14,810.3c-1.4,0-2.5-.9-2.5-2.2s.4-1.3.8-1.5c-.3,0-.6,0-.9,0h-1.4v-.9s6.4,0,6.4,0v.8h-.7c.4.3.8.8.8,1.6,0,1.3-1,2.2-2.5,2.2ZM14,806.5c-1,0-1.7.5-1.7,1.4s.7,1.4,1.7,1.4,1.7-.5,1.7-1.4-.7-1.4-1.7-1.4Z"/>
    <path d="M14,804.6c-1.5,0-2.5-.9-2.5-2.4,0-1.5,1.2-2.3,2.4-2.3h.3v3.7c.8,0,1.5-.6,1.5-1.5s-.3-1-.7-1.2v-.9c.9.3,1.5,1,1.5,2.2s-1,2.4-2.5,2.4ZM13.5,800.9c-.7,0-1.3.5-1.3,1.3s.5,1.3,1.3,1.4v-2.7Z"/>
  </g>
  <g>
    <path d="M8.6,1013c0-25.5,6.6-47.1,34.5-47.1s34.5,21.6,34.5,47.1-7,46.2-34.5,46.2-34.5-18.5-34.5-46.2ZM56.7,1013.5c0-21-3-31.4-13.6-31.4s-13.6,10.4-13.6,31.4,3.1,29.5,13.6,29.5,13.6-9.1,13.6-29.5Z"/>
    <path d="M81,1032.6c0-11.1,5.9-18.6,18.2-22.9v-.2c-9.5-3.2-14.8-10-14.8-19.8s12.1-23.9,30.4-23.9,30.8,10.4,30.8,23.9-5.2,16.5-14.8,19.8v.2c11.9,4.2,18.2,11.8,18.2,22.9,0,16.4-13.4,26.8-34,26.8s-34.1-10.4-34.1-26.8ZM128.6,1030.8c0-7.6-5.5-12.9-13.6-12.9s-13.9,5.2-13.9,12.9,5.4,12.5,13.9,12.5,13.6-5.2,13.6-12.5ZM126.7,992.1c0-5.9-4.5-10.5-11.6-10.5s-11.8,4.6-11.8,10.5,4.6,10.5,11.8,10.5,11.6-4.6,11.6-10.5Z"/>
    <path d="M176.5,1011.7h37.9v16.9h-37.9v-16.9Z"/>
    <path d="M8.6,1136c0-25.5,6.6-47.1,34.5-47.1s34.5,21.6,34.5,47.1-7,46.2-34.5,46.2-34.5-18.5-34.5-46.2ZM56.7,1136.5c0-21-3-31.4-13.6-31.4s-13.6,10.4-13.6,31.4,3.1,29.5,13.6,29.5,13.6-9.1,13.6-29.5Z"/>
    <path d="M82.5,1159.1h21.1c1.5,4.6,4.1,8,10.9,8s14.1-9,14.1-23.2c-2.5,2.5-9,6.5-18.9,6.5-15.6,0-28.2-10.4-28.2-29.9s12.5-31.1,33.8-31.1,34.6,15.4,34.6,43.2-10.9,49.8-36.5,49.8-28.5-10.9-30.9-23.2ZM128.5,1119.8c0-8.8-5.8-14.4-13.5-14.4s-13.4,5.5-13.4,14.1,5.8,14.5,13.5,14.5,13.4-5.5,13.4-14.2Z"/>
  </g>
  <g>
    <path d="M551.8,1037.4c0-16,18.8-20.9,37.4-22.5,2.1-.1,4.5-.4,5.8-.4,0-9-3-13.4-10.5-13.4s-10.2,3.5-10.9,9.4h-18.8c1-13.6,11.5-22.5,29.6-22.5s28.9,7.1,28.9,29.5v20c0,4.9.1,13.2,1.4,18.1h-17.6c-.2-2.5-.5-4.9-.4-7.4-4.1,4.1-9.2,8.6-21.1,8.6s-23.8-7.1-23.8-19.5ZM594.8,1028.7c0-.8,0-1.4.1-2.2l-3.4.4c-14.5,1.6-19.9,3.9-19.9,9.9s4,7.6,9.9,7.6c9,0,13.2-5.6,13.2-15.6Z"/>
    <path d="M617.6,1022.7c0-20.6,14.1-35,35.2-35s35.5,14.4,35.5,35.1-14,34.8-35.4,34.8-35.4-14.2-35.4-34.9ZM667.8,1022.9c0-11.8-5.1-19.8-15.1-19.8s-15,7.9-15,19.6,5.1,19.5,15.1,19.5,15-7.4,15-19.4Z"/>
    <path d="M696.5,1046.7c-3.8-6.5-3.8-15.2-3.8-23.1v-33.6h19.5v31.8c0,13.1,2,20.2,10.5,20.2s12.1-6.4,12.1-18.4v-33.6h19.5v55.6c0,3.4,0,6.6.1,10h-18.6v-9c-2.8,5.4-8.9,10.6-19.8,10.6s-15.8-3.9-19.6-10.5ZM713.6,966.2h19.9l13.2,14.9h-17.1l-5.9-6.4-6,6.4h-17.1l13-14.9Z"/>
    <path d="M767.3,1033.9v-29.8h-9.9v-14.1h9.9v-17.5h19.5v17.5h11.9v14.1h-11.9v22.4c0,11.9.2,15.9,7.8,15.9s2.2-.1,3.4-.4v14.4c-1.9.4-4.4.8-7.8.8-16,0-22.9-5-22.9-23.2Z"/>
  </g>
  <g>
    <path d="M-.2,100.7v-13.5c1,.1,1.5.1,2.1.1,7.4,0,10-3.2,10-10.4V11.8h19.5v65.5c0,17.5-5.5,24.1-22.9,24.1s-6.1-.2-8.8-.8ZM11.9-11.9h19.5V4.1H11.9V-11.9Z"/>
    <path d="M36.2,59.2c0-16,18.8-20.9,37.4-22.5,2.1-.1,4.5-.4,5.8-.4,0-9-3-13.4-10.5-13.4s-10.2,3.5-10.9,9.4h-18.8c1-13.6,11.5-22.5,29.6-22.5s28.9,7.1,28.9,29.5v20c0,4.9.1,13.2,1.4,18.1h-17.6c-.2-2.5-.5-4.9-.4-7.4-4.1,4.1-9.2,8.6-21.1,8.6s-23.8-7.1-23.8-19.5ZM79.2,50.6c0-.8,0-1.4.1-2.2l-3.4.4c-14.5,1.6-19.9,3.9-19.9,9.9s4,7.6,9.9,7.6c9,0,13.2-5.6,13.2-15.6Z"/>
    <path d="M102.3,63.2c12.4-13.9,28.6-32.8,32.6-37-.1,0-.2-.1-.1-.1-5.1.2-9.8.2-15.4.2h-16v-14.5h54.5v14.2c-22.1,24.8-28.1,31.9-32.5,36.9h0c5.6,0,10.2-.1,16.6-.1h17.8v14.6h-57.5v-14.2Z"/>
    <path d="M161.1,63.2c12.4-13.9,28.6-32.8,32.6-37-.1,0-.2-.1-.1-.1-5.1.2-9.8.2-15.4.2h-16v-14.5h54.5v14.2c-22.1,24.8-28.1,31.9-32.5,36.9h0c5.6,0,10.2-.1,16.6-.1h17.8v14.6h-57.5v-14.2Z"/>
    <path d="M239.6,55.9h20.1c1.2,6.4,5.6,9.6,12.9,9.6s10.4-2.4,10.4-6.1-3.5-5.1-11-7.1l-8.4-2.2c-14.2-3.9-21.6-8.5-21.6-20s10.8-20.5,29.5-20.5,28.6,6.9,30,21.2h-19c-1.5-4.8-5.2-7.6-11.6-7.6s-9.1,2.2-9.1,5.6,4.2,5.2,13.4,7.6l4.4,1.1c17.1,4.4,23.6,9.1,23.6,20.6s-11.4,21.2-30.8,21.2-30.8-7.5-32.8-23.5Z"/>
    <path d="M310.8,68.6c-3.8-6.5-3.8-15.2-3.8-23.1V11.8h19.5v31.8c0,13.1,2,20.2,10.5,20.2s12.1-6.4,12.1-18.4V11.8h19.5v55.6c0,3.4,0,6.6.1,10h-18.6v-9c-2.8,5.4-8.9,10.6-19.8,10.6s-15.8-3.9-19.6-10.5Z"/>
    <path d="M378.1,23.7c0-4,0-7.8-.1-11.9h18.1c0,6.5-.1,8.1-.2,10.4h.2c3.2-8.2,9.8-12,18.2-12s3.4.1,4,.2v17.8c-1.6-.4-3.4-.5-5.1-.5-14.4,0-15.6,9.2-15.6,29.1v20.6h-19.5V23.7Z"/>
    <path d="M11.9,110.1h19.5v89.4H11.9v-89.4Z"/>
    <path d="M36.2,181.2c0-16,18.8-20.9,37.4-22.5,2.1-.1,4.5-.4,5.8-.4,0-9-3-13.4-10.5-13.4s-10.2,3.5-10.9,9.4h-18.8c1-13.6,11.5-22.5,29.6-22.5s28.9,7.1,28.9,29.5v20c0,4.9.1,13.2,1.4,18.1h-17.6c-.2-2.5-.5-4.9-.4-7.4-4.1,4.1-9.2,8.6-21.1,8.6s-23.8-7.1-23.8-19.5ZM79.2,172.6c0-.8,0-1.4.1-2.2l-3.4.4c-14.5,1.6-19.9,3.9-19.9,9.9s4,7.6,9.9,7.6c9,0,13.2-5.6,13.2-15.6Z"/>
    <path d="M127.3,133.8h19.1c0,2.9-.1,5-.1,6.9,3-3.8,9.9-8.8,20.5-8.8,17,0,28.8,12.6,28.8,34.1s-11.8,35-29.6,35-16-4.1-19.2-8.4c.1,3.9.1,8.4.1,14v15.2h-19.5v-88.1ZM174.9,166.3c0-11.2-5.5-19.5-14.8-19.5s-14.6,7.5-14.6,19.1,5.4,20,14.6,20,14.8-8.4,14.8-19.6Z"/>
    <path d="M200.9,110.1h19.5v89.4h-19.5v-89.4Z"/>
    <path d="M225.2,181.2c0-16,18.8-20.9,37.4-22.5,2.1-.1,4.5-.4,5.8-.4,0-9-3-13.4-10.5-13.4s-10.2,3.5-10.9,9.4h-18.8c1-13.6,11.5-22.5,29.6-22.5s28.9,7.1,28.9,29.5v20c0,4.9.1,13.2,1.4,18.1h-17.6c-.2-2.5-.5-4.9-.4-7.4-4.1,4.1-9.2,8.6-21.1,8.6s-23.8-7.1-23.8-19.5ZM268.2,172.6c0-.8,0-1.4.1-2.2l-3.4.4c-14.5,1.6-19.9,3.9-19.9,9.9s4,7.6,9.9,7.6c9,0,13.2-5.6,13.2-15.6Z"/>
    <path d="M292.9,201.8h20.5c2.2,5.2,6.1,8,12.5,8,11.8,0,15.9-8.1,15.5-23.1h-.2c-3.2,5.5-10.6,10-20.8,10-17.5,0-29-13-29-32.2s12.4-32.5,29.2-32.5,17.4,4.8,20.5,10.1c-.2-2.6-.2-6.2-.2-8.2h18.9v55.4c0,22.6-12.4,34.8-34.6,34.8s-29.6-8.8-32.2-22.1ZM341.4,163.9c0-10-5.8-17.1-14.6-17.1s-14.8,7.4-14.8,17.8,5.5,17.2,14.8,17.2,14.6-6.6,14.6-17.9Z"/>
    <path d="M364.7,166.4c0-20.4,14.1-34.9,34.6-34.9s33.6,14.9,33.6,36.4-.1,2.4-.1,3.2h-48.8c.8,9.8,6.9,15.6,15.5,15.6s10.2-2.4,12.5-6.9h19.9c-4,12.8-15.4,21.5-33,21.5s-34.2-13.6-34.2-35ZM413.3,159.1c-1-8.6-6-13.6-14.1-13.6s-13.5,5-14.6,13.6h28.8Z"/>
  </g>
  <g>
    <path d="M550.9,913.2v-3.9c.3,0,.4,0,.6,0,2.1,0,2.9-.9,2.9-3v-18.8h5.6v18.9c0,5-1.6,6.9-6.6,6.9s-1.8,0-2.5-.2ZM554.4,880.7h5.6v4.6h-5.6v-4.6Z"/>
    <path d="M561.4,901.2c0-4.6,5.4-6,10.8-6.5.6,0,1.3-.1,1.7-.1,0-2.6-.9-3.9-3-3.9s-3,1-3.1,2.7h-5.4c.3-3.9,3.3-6.5,8.5-6.5s8.3,2.1,8.3,8.5v5.8c0,1.4,0,3.8.4,5.2h-5.1c0-.7-.1-1.4-.1-2.1-1.2,1.2-2.7,2.5-6.1,2.5s-6.8-2.1-6.8-5.6ZM573.8,898.7c0-.2,0-.4,0-.6h-1c-4.2.6-5.7,1.2-5.7,3s1.2,2.2,2.8,2.2c2.6,0,3.8-1.6,3.8-4.5Z"/>
    <path d="M580.5,902.4c3.6-4,8.2-9.4,9.4-10.7,0,0,0,0,0,0-1.5,0-2.8,0-4.4,0h-4.6v-4.2h15.7v4.1c-6.4,7.1-8.1,9.2-9.4,10.6h0c1.6,0,3,0,4.8,0h5.1v4.2h-16.6v-4.1Z"/>
    <path d="M597.4,902.4c3.6-4,8.2-9.4,9.4-10.7,0,0,0,0,0,0-1.5,0-2.8,0-4.4,0h-4.6v-4.2h15.7v4.1c-6.4,7.1-8.1,9.2-9.4,10.6h0c1.6,0,3,0,4.8,0h5.1v4.2h-16.6v-4.1Z"/>
    <path d="M613.9,900.3h5.8c.4,1.8,1.6,2.8,3.7,2.8s3-.7,3-1.8-1-1.5-3.2-2.1l-2.4-.6c-4.1-1.1-6.2-2.4-6.2-5.8s3.1-5.9,8.5-5.9,8.2,2,8.6,6.1h-5.5c-.4-1.4-1.5-2.2-3.3-2.2s-2.6.6-2.6,1.6,1.2,1.5,3.9,2.2l1.3.3c4.9,1.3,6.8,2.6,6.8,5.9s-3.3,6.1-8.9,6.1-8.9-2.2-9.4-6.8Z"/>
    <path d="M634.4,903.9c-1.1-1.9-1.1-4.4-1.1-6.7v-9.7h5.6v9.1c0,3.8.6,5.8,3,5.8s3.5-1.8,3.5-5.3v-9.7h5.6v16c0,1,0,1.9,0,2.9h-5.4v-2.6c-.8,1.5-2.6,3.1-5.7,3.1s-4.5-1.1-5.7-3Z"/>
    <path d="M653.8,891c0-1.2,0-2.2,0-3.4h5.2c0,1.9,0,2.3,0,3h0c.9-2.4,2.8-3.5,5.3-3.5s1,0,1.2,0v5.1c-.5-.1-1-.1-1.5-.1-4.1,0-4.5,2.7-4.5,8.4v5.9h-5.6v-15.5Z"/>
    <path d="M666.4,880.7h5.6v25.7h-5.6v-25.7Z"/>
    <path d="M673.4,901.2c0-4.6,5.4-6,10.8-6.5.6,0,1.3-.1,1.7-.1,0-2.6-.9-3.9-3-3.9s-3,1-3.1,2.7h-5.4c.3-3.9,3.3-6.5,8.5-6.5s8.3,2.1,8.3,8.5v5.8c0,1.4,0,3.8.4,5.2h-5.1c0-.7-.1-1.4-.1-2.1-1.2,1.2-2.7,2.5-6.1,2.5s-6.8-2.1-6.8-5.6ZM685.8,898.7c0-.2,0-.4,0-.6h-1c-4.2.6-5.7,1.2-5.7,3s1.2,2.2,2.8,2.2c2.6,0,3.8-1.6,3.8-4.5Z"/>
    <path d="M693.6,887.6h5.5c0,.8,0,1.4,0,2,.9-1.1,2.8-2.5,5.9-2.5,4.9,0,8.3,3.6,8.3,9.8s-3.4,10.1-8.5,10.1-4.6-1.2-5.5-2.4c0,1.1,0,2.4,0,4v4.4h-5.6v-25.4ZM707.3,896.9c0-3.2-1.6-5.6-4.2-5.6s-4.2,2.2-4.2,5.5,1.5,5.8,4.2,5.8,4.2-2.4,4.2-5.7Z"/>
    <path d="M714.8,880.7h5.6v25.7h-5.6v-25.7Z"/>
    <path d="M721.8,901.2c0-4.6,5.4-6,10.8-6.5.6,0,1.3-.1,1.7-.1,0-2.6-.9-3.9-3-3.9s-3,1-3.1,2.7h-5.4c.3-3.9,3.3-6.5,8.5-6.5s8.3,2.1,8.3,8.5v5.8c0,1.4,0,3.8.4,5.2h-5.1c0-.7-.1-1.4-.1-2.1-1.2,1.2-2.7,2.5-6.1,2.5s-6.8-2.1-6.8-5.6ZM734.1,898.7c0-.2,0-.4,0-.6h-1c-4.2.6-5.7,1.2-5.7,3s1.2,2.2,2.8,2.2c2.6,0,3.8-1.6,3.8-4.5Z"/>
    <path d="M741.3,907.1h5.9c.6,1.5,1.8,2.3,3.6,2.3,3.4,0,4.6-2.3,4.5-6.7h0c-.9,1.6-3.1,2.9-6,2.9-5,0-8.4-3.7-8.4-9.3s3.6-9.4,8.4-9.4,5,1.4,5.9,2.9c0-.8,0-1.8,0-2.4h5.4v15.9c0,6.5-3.6,10-10,10s-8.5-2.5-9.3-6.4ZM755.2,896.2c0-2.9-1.7-4.9-4.2-4.9s-4.2,2.1-4.2,5.1,1.6,5,4.2,5,4.2-1.9,4.2-5.1Z"/>
    <path d="M761.9,897c0-5.9,4.1-10,10-10s9.7,4.3,9.7,10.5,0,.7,0,.9h-14c.2,2.8,2,4.5,4.5,4.5s3-.7,3.6-2h5.7c-1.2,3.7-4.4,6.2-9.5,6.2s-9.9-3.9-9.9-10.1ZM775.9,894.8c-.3-2.5-1.7-3.9-4.1-3.9s-3.9,1.4-4.2,3.9h8.3Z"/>
    <path d="M782.7,900.5h5.9v6h-5.9v-6Z"/>
    <path d="M789.6,897c0-5.9,4-10.1,10-10.1s8.5,2.6,9.3,7.3h-5.7c-.5-1.8-1.7-2.9-3.6-2.9s-4.3,2.2-4.3,5.6,1.7,5.6,4.4,5.6,3.2-.9,3.6-2.8h5.5c-.9,4.4-4.2,7.3-9.4,7.3s-10-4.2-10-10Z"/>
    <path d="M810.2,880.7h5.6v4c0,1.4,0,3.4,0,5,.9-1.4,2.7-2.6,5.6-2.6s4.5,1.1,5.7,3c1.1,1.9,1.1,4.4,1.1,6.7v9.7h-5.6v-9.1c0-3.8-.6-5.8-3.1-5.8s-3.6,1.8-3.6,5.3v9.7h-5.6v-25.7Z"/>
  </g>
  <rect class="st1" x="3.1" y="-18" width="33" height="23"/>
</svg>